<svg fill="#E86A2C" xmlns="http://www.w3.org/2000/svg" xmlns:xlink="http://www.w3.org/1999/xlink"
	 width="20" height="20" viewBox="0 0 410 410" >
<g>
	<g>
		<g>
			<path d="M390.64,95.933H286.027V67.224c0-17.62-14.335-31.956-31.957-31.956h-98.142c-17.62,0-31.956,14.336-31.956,31.956
				v28.709H19.36C8.667,95.933,0,104.6,0,115.292v62.811h75.048v-15.819c0-10.086,8.176-18.261,18.26-18.261h3.653
				c10.084,0,18.26,8.175,18.26,18.261v15.819h179.558v-15.819c0-10.086,8.176-18.261,18.26-18.261h3.652
				c10.085,0,18.261,8.175,18.261,18.261v15.819H410v-62.811C410,104.6,401.333,95.933,390.64,95.933z M258.636,95.933H151.364
				V67.224c0-2.517,2.048-4.565,4.565-4.565h98.143c2.517,0,4.563,2.048,4.563,4.565V95.933L258.636,95.933z"/>
			<path d="M334.952,219.898c0,10.085-8.176,18.261-18.261,18.261h-3.652c-10.084,0-18.26-8.176-18.26-18.261v-12.482H115.221
				v12.482c0,10.085-8.176,18.261-18.26,18.261h-3.653c-10.084,0-18.26-8.176-18.26-18.261v-12.482h-63.42V356.47
				c0,10.086,8.176,18.262,18.26,18.262H380.11c10.084,0,18.26-8.176,18.26-18.262V207.415h-63.419L334.952,219.898L334.952,219.898
				z"/>
		</g>
	</g>
</g>
</svg>